<svg width="33" height="33" viewBox="0 0 33 33" fill="none" xmlns="http://www.w3.org/2000/svg">
<g clip-path="url(#clip0)">
<path d="M22.8016 10.2422C22.4419 10.378 22.1415 10.6033 21.9161 10.8834C21.4401 9.95189 20.327 9.50583 19.3263 9.8834C18.8504 10.0629 18.478 10.4002 18.2465 10.8154C17.6915 10.3773 16.9271 10.2318 16.2186 10.4992C15.864 10.6329 15.5668 10.8538 15.3427 11.1286L13.4055 5.99384C12.9998 4.9188 11.7959 4.37443 10.7208 4.78001C9.64583 5.18558 9.10141 6.38959 9.50701 7.46465L14.4275 20.5067C14.5201 20.7523 14.4059 20.9394 14.3526 21.0085C14.2992 21.0776 14.1454 21.2362 13.8867 21.2087L10.1669 20.8247C9.82799 20.7895 9.48033 20.8347 9.16149 20.955C8.02316 21.3845 7.44652 22.6599 7.87598 23.7983L8.01637 24.1704C8.06735 24.3055 8.17216 24.4133 8.30549 24.4685L15.9105 27.5959C17.5022 28.2501 19.2658 28.2762 20.8757 27.6689L23.9313 26.5161C27.4243 25.1982 29.1941 21.284 27.8763 17.791L25.4862 11.4561C25.0806 10.381 23.8766 9.83664 22.8016 10.2422ZM26.9017 18.1587C28.0168 21.1144 26.5194 24.4263 23.5637 25.5414L20.508 26.6942C19.146 27.2081 17.6537 27.1862 16.3068 26.632L8.91108 23.5909L8.85058 23.4306C8.62381 22.8295 8.92815 22.1564 9.52918 21.9296C9.69717 21.8663 9.88119 21.8425 10.06 21.8609L13.7797 22.245C14.3224 22.3017 14.8449 22.0758 15.178 21.6446C15.5108 21.2124 15.5947 20.6497 15.4021 20.139L10.4816 7.09696C10.2789 6.5597 10.5513 5.95736 11.0885 5.75467C11.6258 5.55197 12.2281 5.82431 12.4308 6.36157L15.1885 13.6712C15.2902 13.9405 15.5904 14.0762 15.8597 13.9746C16.1291 13.873 16.2648 13.5728 16.1632 13.3034L15.9793 12.8161C15.7766 12.2789 16.049 11.6765 16.5862 11.4738C17.1235 11.2711 17.7258 11.5435 17.9285 12.0807L18.1124 12.5681C18.1127 12.569 18.1131 12.57 18.1135 12.5709L18.1136 12.5714C18.2164 12.8381 18.5156 12.9726 18.7835 12.8715C19.0529 12.7699 19.1886 12.4697 19.087 12.2003L19.0841 12.1927C18.8867 11.6578 19.16 11.0594 19.6939 10.858C20.2312 10.6553 20.8335 10.9277 21.0362 11.4649L21.5877 12.9268C21.6894 13.1962 21.9896 13.3319 22.2589 13.2303C22.5283 13.1287 22.664 12.8285 22.5624 12.5591C22.3597 12.0219 22.632 11.4195 23.1693 11.2168C23.7065 11.0141 24.3089 11.2865 24.5116 11.8238L26.9017 18.1587Z" fill="black"/>
</g>
<defs>
<clipPath id="clip0">
<rect y="8.82471" width="25" height="25" transform="rotate(-20.6703 0 8.82471)" fill="white"/>
</clipPath>
</defs>
</svg>
