<svg width="30" height="30" viewBox="0 0 30 30" fill="none" xmlns="http://www.w3.org/2000/svg">
<g clip-path="url(#clip0)">
<path d="M22.6152 2.75342C22.2918 2.75342 22.0293 3.01592 22.0293 3.33935C22.0293 3.66279 22.2918 3.92529 22.6152 3.92529C22.9387 3.92529 23.2012 3.66279 23.2012 3.33935C23.2012 3.01592 22.9388 2.75342 22.6152 2.75342Z" fill="black"/>
<path d="M23.1517 0.468677C19.4771 -0.709641 16.4061 0.608951 14.9982 1.42147C13.5903 0.608775 10.5199 -0.709875 6.84434 0.468677C1.97685 2.03002 -0.305196 9.13755 3.59755 14.8725C5.44659 17.5884 5.6935 19.6833 5.95489 21.9012C6.14626 23.5248 6.34413 25.2037 7.17065 27.1665C7.72647 28.486 8.51215 29.9954 9.67459 29.9953C9.68508 29.9953 9.6958 29.9952 9.70635 29.995C10.6411 29.9729 11.3944 29.0458 12.1486 26.9889C12.5328 25.9403 12.7789 24.7031 13.017 23.5066C13.4455 21.3531 13.8886 19.1262 15.0023 19.1184C15.0043 19.1184 15.0063 19.1184 15.0083 19.1184C16.1098 19.1184 16.5519 21.3461 16.9795 23.5003C17.2177 24.7005 17.464 25.9417 17.8482 26.989C18.6033 29.0491 19.3565 29.9776 20.2904 29.9996C20.301 29.9999 20.3115 30 20.3221 30C21.4822 30 22.2689 28.4882 22.8256 27.1664C23.6154 25.2908 23.8223 23.616 24.0224 21.9965C24.3041 19.7162 24.5702 17.5624 26.403 14.8662C30.3515 9.05727 27.9375 2.00283 23.1517 0.468677ZM25.4338 14.2074C23.4418 17.1377 23.1457 19.5347 22.8593 21.8528C22.6602 23.4639 22.4722 24.9857 21.7455 26.7115C20.8832 28.7587 20.3832 28.8281 20.3199 28.8281C20.3192 28.8281 20.3187 28.8281 20.3181 28.8281C20.2955 28.8275 19.7564 28.7897 18.9484 26.5854C18.5957 25.6238 18.3585 24.4283 18.129 23.2721C17.8714 21.9742 17.6282 20.7483 17.2271 19.7914C16.714 18.5671 15.9683 17.9465 15.0102 17.9465C15.0049 17.9465 14.9994 17.9465 14.9941 17.9465C14.032 17.9533 13.2834 18.5787 12.7693 19.8055C12.3684 20.7619 12.1252 21.9841 11.8678 23.278C11.6384 24.4306 11.4013 25.6226 11.0484 26.5856C10.242 28.785 9.70154 28.8229 9.67893 28.8234C9.62643 28.8244 9.12053 28.7763 8.25088 26.7117C7.48876 24.9018 7.30911 23.3777 7.11897 21.7641C6.85255 19.5036 6.57704 17.1662 4.56657 14.2132C1.04832 9.04339 3.16906 2.87852 7.20241 1.58471C10.7098 0.460006 13.6045 1.92104 14.6862 2.60149C14.8768 2.72143 15.1194 2.72149 15.31 2.60154C16.3921 1.92127 19.2875 0.460357 22.794 1.58477C26.9072 2.90318 28.8809 9.13614 25.4338 14.2074Z" fill="black"/>
<path d="M25.6098 6.06606C25.4195 5.51358 25.1672 5.00523 24.8601 4.55505C24.6777 4.28763 24.3132 4.21878 24.0459 4.40118C23.7785 4.58353 23.7097 4.94804 23.8921 5.2154C24.1404 5.57933 24.3455 5.99399 24.5018 6.44774C25.0857 8.14251 24.9334 10.12 24.0838 11.8732C23.9427 12.1644 24.0644 12.5148 24.3556 12.656C24.6468 12.7971 24.9973 12.6754 25.1384 12.3842C26.1221 10.3544 26.2939 8.05145 25.6098 6.06606Z" fill="black"/>
<path d="M12.8688 8.01546L10.51 7.22919L9.72371 4.87039C9.64397 4.63115 9.42002 4.46973 9.16784 4.46973C8.91565 4.46973 8.69176 4.63109 8.61196 4.87039L7.82569 7.22919L5.46689 8.01546C5.22765 8.09521 5.06622 8.31915 5.06622 8.57134C5.06622 8.82353 5.22759 9.04741 5.46689 9.12722L7.82569 9.91349L8.61196 12.2723C8.6917 12.5115 8.91565 12.673 9.16784 12.673C9.42002 12.673 9.64391 12.5116 9.72371 12.2723L10.51 9.91349L12.8688 9.12722C13.108 9.04747 13.2695 8.82353 13.2695 8.57134C13.2695 8.31915 13.1081 8.09527 12.8688 8.01546ZM9.86147 8.89437C9.68651 8.95267 9.54916 9.08995 9.49086 9.26497L9.16784 10.2341L8.84481 9.26497C8.78651 9.09001 8.64922 8.95267 8.47421 8.89437L7.50507 8.57134L8.47421 8.24831C8.64917 8.19001 8.78651 8.05273 8.84481 7.87771L9.16784 6.90857L9.49086 7.87771C9.54916 8.05267 9.68645 8.19001 9.86147 8.24831L10.8306 8.57134L9.86147 8.89437Z" fill="black"/>
</g>
<defs>
<clipPath id="clip0">
<rect width="30" height="30" fill="white"/>
</clipPath>
</defs>
</svg>
