<svg width="100" height="101" viewBox="0 0 100 101" fill="none" xmlns="http://www.w3.org/2000/svg">
<path d="M88.7095 33.5216H61.2904C55.0663 33.5216 50.0002 28.3936 50.0002 22.0934C50.0002 15.7933 55.0663 10.6653 61.2904 10.6653C61.9082 10.6653 62.5226 10.716 63.1293 10.8172C65.3776 4.88931 71.0486 0.869751 77.4194 0.869751C83.8596 0.869751 89.6515 5.03467 91.8243 11.1096C96.6146 12.4975 100 16.9689 100 22.0938C99.9997 28.3936 94.9336 33.5216 88.7095 33.5216Z" fill="#4BC2C5"/>
<path d="M97.7128 54.2123C92.0727 51.3567 85.7564 49.8481 79.45 49.8481H59.1129L40.8339 36.7872H25.1388L38.0419 49.8481H24.8065L10.2905 36.7872H0.743652L7.13407 51.3437L4.83898 51.7307V57.2181L5.86967 57.9641C13.2986 63.3356 22.0518 66.1747 31.181 66.1747H34.8164L23.0147 78.1203L24.6632 79.2222C25.1777 79.5668 25.6631 79.9635 26.1051 80.401L26.5759 80.8679H35.9968L56.5611 66.1744H79.0449C84.6079 66.1744 90.0208 65.0495 95.1319 62.8322L97.493 61.8085C99.0155 61.1458 99.9995 59.6355 99.9995 57.9586C99.9998 56.3623 99.1239 54.9271 97.7128 54.2123ZM32.9257 40.0525H39.8113L53.5209 49.8481H42.6033L32.9257 40.0525ZM5.7081 40.0525H9.0647L19.9518 49.8481H17.7309C16.5793 49.8481 15.4196 49.9462 14.2842 50.1372L10.4212 50.7886L5.7081 40.0525ZM96.2225 58.8065L93.8614 59.8302C89.1516 61.8743 84.1696 62.9094 79.0452 62.9094H61.131L63.8342 60.9781L61.973 58.3104L34.9732 77.6029H28.0872L44.6887 60.7985L42.4082 58.49L38.0422 62.9094H31.1807C22.8596 62.9094 14.8759 60.361 8.0645 55.5364V54.4965L14.8146 53.3569C15.7759 53.1954 16.7581 53.1134 17.7309 53.1134H79.45C85.2595 53.1134 91.0758 54.5027 96.2693 57.1313C96.5805 57.2897 96.7739 57.6065 96.7739 57.959C96.7739 58.3279 96.5561 58.6611 96.2225 58.8065Z" fill="white"/>
<path d="M29.0321 100.459H9.67724C4.34021 100.459 0 96.0662 0 90.6639C0 85.8674 3.4887 81.8053 8.09852 81.0363C10.3662 76.9385 14.6871 74.3376 19.3548 74.3376C25.4871 74.3376 30.7388 78.7279 31.9741 84.7113C35.0387 85.9212 37.0967 88.8989 37.0967 92.2965C37.0967 96.7975 33.479 100.459 29.0321 100.459Z" fill="#4BC2C5"/>
<path d="M87.0966 84.1333H54.8386V87.4073H87.0966V84.1333Z" fill="white"/>
<path d="M51.6129 84.1333H48.387V87.4073H51.6129V84.1333Z" fill="white"/>
<path d="M40.3221 12.2972H14.5159V15.571H40.3221V12.2972Z" fill="white"/>
<path d="M11.2906 12.2972H8.0647V15.571H11.2906V12.2972Z" fill="white"/>
<path d="M32.2583 20.4607H8.0647V23.7319H32.2583V20.4607Z" fill="white"/>
<path d="M4.8389 20.4607H1.61304V23.7319H4.8389V20.4607Z" fill="white"/>
</svg>
